# Blender 3.4.0
# www.blender.org
mtllib FENCE BOIIIIIIIII.mtl
o Cube
v 0.500000 2.800000 -0.200000
v 0.500000 -2.800000 -0.200000
v 0.500000 2.800000 0.200000
v 0.500000 -2.800000 0.200000
v -0.500000 2.800000 -0.200000
v -0.500000 -2.800000 -0.200000
v -0.500000 2.800000 0.200000
v -0.500000 -2.800000 0.200000
v 0.500000 1.744057 -0.200000
v -0.500000 1.744057 0.200000
v 0.500000 1.744057 0.200000
v -0.500000 1.744057 -0.200000
v 0.500000 -1.776618 -0.200000
v 0.500000 -1.776618 0.200000
v -0.500000 -1.776618 -0.200000
v -0.500000 -1.776618 0.200000
v -0.500000 -1.004120 0.200000
v 0.500000 -1.004120 -0.200000
v 0.500000 -1.004120 0.200000
v -0.500000 -1.004120 -0.200000
v -0.500000 0.940457 0.200000
v 0.500000 0.940457 -0.200000
v 0.500000 0.940457 0.200000
v -0.500000 0.940457 -0.200000
v 6.529595 1.744057 -0.200000
v 6.529595 1.744057 0.200000
v 6.529595 0.940457 -0.200000
v 6.529595 0.940457 0.200000
v -1.617450 0.940457 0.200000
v -1.617450 1.744057 0.200000
v -1.617450 1.744057 -0.200000
v -1.617450 0.940457 -0.200000
v -1.604920 -1.004120 -0.200000
v -1.604920 -1.776618 -0.200000
v -1.604920 -1.776618 0.200000
v -1.604920 -1.004120 0.200000
v 6.518290 -1.004120 -0.200000
v 6.518290 -1.776618 -0.200000
v 6.518290 -1.004120 0.200000
v 6.518290 -1.776618 0.200000
v 5.411697 1.744057 0.200000
v 5.411697 1.744057 -0.200000
v 5.411697 0.940457 -0.200000
v 5.411697 0.940457 0.200000
v 4.449244 1.744057 -0.200000
v 4.449244 0.940457 -0.200000
v 4.449244 0.940457 0.200000
v 4.449244 1.744057 0.200000
v 5.413001 -1.004626 -0.200000
v 5.411697 -1.005133 0.200000
v 4.449588 -1.004626 -0.200000
v 4.449588 -1.004626 0.200000
v 4.449933 -1.776618 0.200000
v 4.449933 -1.776618 -0.200000
v 5.414305 -1.776618 0.200000
v 5.414305 -1.776618 -0.200000
v 5.414305 -1.004120 0.200000
v 4.449244 2.792164 0.200000
v 5.411697 2.792164 0.200000
v 5.411697 2.792164 -0.200000
v 4.449244 2.792164 -0.200000
v 4.449933 -2.785543 -0.200000
v 4.449933 -2.785543 0.200000
v 5.414305 -2.785543 0.200000
v 5.414305 -2.785543 -0.200000
vn -0.0000 1.0000 -0.0000
vn -0.0000 -0.0000 1.0000
vn -1.0000 -0.0000 -0.0000
vn -0.0000 -1.0000 -0.0000
vn 1.0000 -0.0000 -0.0000
vn -0.0000 -0.0000 -1.0000
vn -0.0002 1.0000 -0.0006
vn 1.0000 0.0003 0.0016
vn -1.0000 -0.0002 -0.0000
vn 0.0001 1.0000 -0.0000
vt 0.148996 0.779108
vt 0.543101 0.973574
vt 0.992601 0.193426
vt 0.144222 0.815171
vt 0.980632 0.971235
vt 0.508287 0.195430
vt 0.148996 0.752421
vt 0.479867 0.528645
vt 0.542918 0.944999
vt 0.144222 0.841858
vt 0.016155 0.527195
vt 0.980449 0.942660
vt 0.090667 0.779108
vt 0.552989 0.817829
vt 0.992243 0.106941
vt 0.085893 0.815171
vt 0.955432 0.814978
vt 0.507929 0.108945
vt 0.090667 0.752421
vt 0.479612 0.612818
vt 0.553212 0.844112
vt 0.085893 0.841858
vt 0.015900 0.611369
vt 0.955655 0.841261
vt 0.625602 0.973133
vt 0.148996 0.779108
vt 0.901278 0.193804
vt 0.629097 0.843574
vt 0.392174 0.612545
vt 0.090667 0.752421
vt 0.625419 0.944558
vt 0.148996 0.752421
vt 0.392428 0.528371
vt 0.628874 0.817291
vt 0.900921 0.107319
vt 0.090667 0.779108
vt 0.900674 0.971662
vt 0.596794 0.195063
vt 0.144222 0.815171
vt 0.900491 0.943087
vt 0.144222 0.841858
vt 0.100897 0.527460
vt 0.881887 0.815499
vt 0.596436 0.108579
vt 0.085893 0.815171
vt 0.882110 0.841782
vt 0.100642 0.611634
vt 0.085893 0.841858
vt 0.164609 0.611834
vt 0.826594 0.842176
vt 0.086976 0.886534
vt 0.840318 0.971985
vt 0.145305 0.913221
vt 0.663603 0.194787
vt 0.840136 0.943410
vt 0.145305 0.886534
vt 0.164864 0.527660
vt 0.826372 0.815892
vt 0.663245 0.108302
vt 0.086976 0.913221
vt 0.090977 0.973510
vt 0.686847 0.843165
vt 0.325631 0.612337
vt 0.688388 0.972797
vt 0.831779 0.194091
vt 0.149306 0.946823
vt 0.688205 0.944222
vt 0.149306 0.973510
vt 0.325886 0.528163
vt 0.090977 0.946823
vt 0.686625 0.816882
vt 0.831421 0.107606
vt 0.500696 0.779108
vt 0.630769 0.786190
vt 0.903436 0.715272
vt 0.500696 0.752421
vt 0.630546 0.759907
vt 0.393964 0.020839
vt 0.688520 0.785781
vt 0.833937 0.715559
vt 0.501006 0.946823
vt 0.688297 0.759498
vt 0.501006 0.973510
vt 0.327421 0.020631
vt 0.025797 0.973510
vt 0.686847 0.843165
vt 0.325347 0.706397
vt 0.629097 0.843574
vt 0.391889 0.706605
vt 0.025488 0.752421
vt 0.628874 0.817291
vt 0.900521 0.010676
vt 0.025488 0.779108
vt 0.025797 0.946823
vt 0.686625 0.816882
vt 0.831021 0.010964
vt 0.826372 0.815892
vt 0.662850 0.012743
vt 0.022527 0.913221
vt 0.881887 0.815499
vt 0.596040 0.013020
vt 0.021444 0.815171
vt 0.100361 0.704639
vt 0.882110 0.841782
vt 0.021444 0.841858
vt 0.164328 0.704839
vt 0.826594 0.842176
vt 0.022527 0.886534
vt 0.828267 0.784791
vt 0.665757 0.715277
vt 0.496346 0.913221
vt 0.883782 0.784398
vt 0.495263 0.815171
vt 0.598947 0.715554
vt 0.166396 0.021079
vt 0.828044 0.758508
vt 0.496346 0.886534
vt 0.102429 0.020879
vt 0.883559 0.758115
vt 0.495263 0.841858
vt 0.435491 0.752421
vt 0.393679 0.114936
vt 0.630546 0.759907
vt 0.435491 0.779108
vt 0.903036 0.618590
vt 0.630769 0.786190
vt 0.435800 0.946823
vt 0.833537 0.618878
vt 0.688520 0.785781
vt 0.435800 0.973510
vt 0.327136 0.114728
vt 0.688297 0.759498
vt 0.624685 0.885590
vt 0.379352 0.779108
vt 0.902692 0.535353
vt 0.379661 0.946823
vt 0.833192 0.535640
vt 0.687471 0.885255
vt 0.379661 0.973510
vt 0.326891 0.195742
vt 0.687654 0.913829
vt 0.624868 0.914165
vt 0.379352 0.752421
vt 0.393434 0.195950
vt 0.431951 0.913221
vt 0.665273 0.619574
vt 0.828339 0.784791
vt 0.665362 0.619799
vt 0.166031 0.114225
vt 0.828117 0.758507
vt 0.839481 0.884442
vt 0.375701 0.913221
vt 0.665016 0.536396
vt 0.839664 0.913017
vt 0.375701 0.886534
vt 0.165870 0.195180
vt 0.374618 0.841858
vt 0.101902 0.194980
vt 0.899940 0.912695
vt 0.374618 0.815171
vt 0.899758 0.884120
vt 0.598207 0.536672
vt 0.430869 0.841858
vt 0.102148 0.113806
vt 0.883559 0.758115
vt 0.430869 0.815171
vt 0.598552 0.620076
vt 0.883782 0.784398
vt 0.431951 0.886534
vt 0.166115 0.114006
vt 0.542979 0.914603
vt 0.379352 0.752421
vt 0.480223 0.196221
vt 0.435491 0.752421
vt 0.480468 0.115208
vt 0.555224 0.760440
vt 0.435491 0.779108
vt 0.993681 0.618215
vt 0.555447 0.786724
vt 0.542796 0.886028
vt 0.379352 0.779108
vt 0.993337 0.534978
vt 0.374618 0.815171
vt 0.978585 0.883698
vt 0.510951 0.537033
vt 0.018358 0.194719
vt 0.374618 0.841858
vt 0.978768 0.912273
vt 0.018603 0.113544
vt 0.430869 0.841858
vt 0.956066 0.757601
vt 0.430869 0.815171
vt 0.511296 0.620437
vt 0.956288 0.783884
s 0
usemtl 
f 1/1/1 5/13/1 7/19/1 3/7/1
f 11/33/2 3/8/2 7/20/2 10/29/2
f 10/28/3 7/21/3 5/14/3 12/34/3
f 6/16/4 2/4/4 4/10/4 8/22/4
f 9/25/5 1/2/5 3/9/5 11/31/5
f 12/35/6 5/15/6 1/3/6 9/27/6
f 24/72/6 12/35/6 9/27/6 22/65/6
f 42/124/1 41/121/1 26/76/1 25/73/1
f 24/70/4 21/61/4 29/85/4 32/94/4
f 23/69/2 11/33/2 10/29/2 21/63/2
f 4/11/2 14/42/2 16/47/2 8/23/2
f 8/24/3 16/46/3 15/43/3 6/17/3
f 2/5/5 13/37/5 14/40/5 4/12/5
f 6/18/6 15/44/6 13/38/6 2/6/6
f 14/42/2 19/57/2 17/49/2 16/47/2
f 16/47/2 17/49/2 36/106/2 35/103/2
f 57/170/2 55/164/2 40/118/2 39/115/2
f 15/44/6 20/59/6 18/54/6 13/38/6
f 19/57/2 23/69/2 21/63/2 17/49/2
f 17/50/3 21/62/3 24/71/3 20/58/3
f 18/52/5 22/64/5 23/67/5 19/55/5
f 20/59/6 24/72/6 22/65/6 18/54/6
f 27/79/5 25/74/5 26/77/5 28/82/5
f 43/128/6 42/125/6 25/75/6 27/80/6
f 44/130/4 43/127/4 27/81/4 28/83/4
f 41/122/2 44/131/2 28/84/2 26/78/2
f 29/86/3 30/88/3 31/91/3 32/95/3
f 12/35/6 24/72/6 32/96/6 31/92/6
f 21/63/2 10/29/2 30/89/2 29/87/2
f 10/30/1 12/36/1 31/93/1 30/90/1
f 35/104/3 36/107/3 33/97/3 34/100/3
f 20/59/6 15/44/6 34/101/6 33/98/6
f 17/51/1 20/60/1 33/99/1 36/108/1
f 15/45/4 16/48/4 35/105/4 34/102/4
f 38/112/5 37/109/5 39/116/5 40/119/5
f 55/163/4 56/166/4 38/113/4 40/120/4
f 56/167/6 49/148/6 37/110/6 38/114/6
f 49/145/7 57/169/7 39/117/7 37/111/7
f 48/144/2 47/140/2 44/131/2 41/122/2
f 44/131/2 47/140/2 52/156/2 50/149/2
f 46/137/6 45/135/6 42/125/6 43/128/6
f 45/133/3 48/142/3 58/171/3 61/180/3
f 9/26/1 11/32/1 48/143/1 45/134/1
f 22/65/6 9/27/6 45/135/6 46/137/6
f 23/68/4 22/66/4 46/136/4 47/139/4
f 11/33/2 23/69/2 47/140/2 48/144/2
f 46/137/6 43/128/6 49/146/6 51/153/6
f 43/129/8 44/132/8 50/150/8 49/147/8
f 47/141/9 46/138/9 51/151/9 52/154/9
f 18/53/10 19/56/10 52/155/10 51/152/10
f 13/38/6 18/54/6 51/153/6 54/162/6
f 14/41/4 13/39/4 54/160/4 53/157/4
f 19/57/2 14/42/2 53/158/2 52/156/2
f 54/162/6 51/153/6 49/148/6 56/167/6
f 55/164/2 53/158/2 63/186/2 64/189/2
f 52/156/2 53/158/2 55/164/2 57/170/2
f 61/181/1 58/172/1 59/174/1 60/177/1
f 42/125/6 45/135/6 61/182/6 60/178/6
f 48/144/2 41/122/2 59/175/2 58/173/2
f 41/123/5 42/126/5 60/179/5 59/176/5
f 63/187/4 62/183/4 65/192/4 64/190/4
f 53/159/3 54/161/3 62/184/3 63/188/3
f 54/162/6 56/167/6 65/193/6 62/185/6
f 56/168/5 55/165/5 64/191/5 65/194/5
